# xmcd CD database file
#
# Track frame offsets:
#	150
#	27670
#	55655
#	72825
#	97372
#	128762
#	157070
#	188567
#	210887
#	237517
#	275172
#
# Disc length: 4436 seconds
#
# Revision: 5
# Processed by: cddbd v1.5.2PL0 Copyright (c) Steve Scherf et al.
# Submitted via: CDex 1.78
#
DISCID=a211520b
DTITLE=Gov't Mule - Life Before Insanity
DYEAR=2000
DGENRE=Southern Rock
TTITLE0=Wandering Child
TTITLE1=Life Before Insanity
TTITLE2=Bad Little Doggie
TTITLE3=Lay Your Burden Down
TTITLE4=Fallen Down
TTITLE5=World Gone Wild
TTITLE6=Tastes Like Wine
TTITLE7=I Think You Know What I Mean
TTITLE8=Far Away
TTITLE9=No Need To Suffer
TTITLE10=In My Life
EXTD=YEAR: 2000
EXTT0=
EXTT1=
EXTT2=
EXTT3=
EXTT4=
EXTT5=
EXTT6=
EXTT7=
EXTT8=
EXTT9=
EXTT10=
PLAYORDER=
